<svg xmlns="http://www.w3.org/2000/svg" version="1.1" xmlns:xlink="http://www.w3.org/1999/xlink" xmlns:svgjs="http://svgjs.com/svgjs" width="1920" height="590" preserveAspectRatio="none" viewBox="0 0 1920 590"><g mask="url(&quot;#SvgjsMask1053&quot;)" fill="none"><path d="M67 590L657 0L1279.5 0L689.5 590z" fill="url(#SvgjsLinearGradient1054)"></path><path d="M503.40000000000003 590L1093.4 0L1726.4 0L1136.4 590z" fill="url(#SvgjsLinearGradient1054)"></path><path d="M863.8000000000001 590L1453.8000000000002 0L1708.8000000000002 0L1118.8000000000002 590z" fill="url(#SvgjsLinearGradient1054)"></path><path d="M1904 590L1314 0L1006.5 0L1596.5 590z" fill="url(#SvgjsLinearGradient1055)"></path><path d="M1440.6 590L850.5999999999999 0L537.0999999999999 0L1127.1 590z" fill="url(#SvgjsLinearGradient1055)"></path><path d="M1027.1999999999998 590L437.1999999999998 0L-20.300000000000182 0L569.6999999999998 590z" fill="url(#SvgjsLinearGradient1055)"></path><path d="M1588.5350312044025 590L1920 258.5350312044025L1920 590z" fill="url(#SvgjsLinearGradient1054)"></path><path d="M0 590L331.4649687955975 590L 0 258.5350312044025z" fill="url(#SvgjsLinearGradient1055)"></path></g><defs><mask id="SvgjsMask1053"><rect width="1920" height="590" fill="#ffffff"></rect></mask><linearGradient x1="0%" y1="100%" x2="100%" y2="0%" id="SvgjsLinearGradient1054"><stop stop-color="rgba(119, 141, 169, 1)" offset="0"></stop><stop stop-opacity="0" stop-color="rgba(119, 141, 169, 1)" offset="0.66"></stop></linearGradient><linearGradient x1="100%" y1="100%" x2="0%" y2="0%" id="SvgjsLinearGradient1055"><stop stop-color="rgba(119, 141, 169, 1)" offset="0"></stop><stop stop-opacity="0" stop-color="rgba(119, 141, 169, 1)" offset="0.66"></stop></linearGradient></defs></svg>